# xmcd
#
# Track frame offsets:
#	150
#	17689
#	37158
#	51495
#	72439
#	87635
#	105869
#	123639
#	134699
#	147522
#	152410
#
# Disc length: 2272 seconds
#
# Revision: 1
# Processed by: cddbd v1.5.2PL0 Copyright (c) Steve Scherf et al.
# Submitted via: audiograbber 1.83.01
#
DISCID=a308de0b
DTITLE=Bellamy Brothers - When We Were Boys
DYEAR=1982
DGENRE=Country
TTITLE0=For All The Wrong Reasons
TTITLE1=When We Were Boys
TTITLE2=Get Into Reggae Cowboy
TTITLE3=You Make Love So Easy
TTITLE4=Goin' Sane
TTITLE5=We're Just A Little Ole Country Band
TTITLE6=This Time
TTITLE7=Until The Money's Gone
TTITLE8=We Can Handle It
TTITLE9=When We Were Boys (Reprise)
TTITLE10=When We All Get To Heaven
EXTD=
EXTT0=
EXTT1=
EXTT2=
EXTT3=
EXTT4=
EXTT5=
EXTT6=
EXTT7=
EXTT8=
EXTT9=
EXTT10=
PLAYORDER=
